{
  "accessors": [
    {
      "bufferView": 1,
      "componentType": 5126,
      "count": 39364,
      "max": [
        3.412031888961792,
        42.812744140625,
        3.4053292274475098
      ],
      "min": [
        -3.4282233715057373,
        -4.9818525314331055,
        -3.3627796173095703
      ],
      "type": "VEC3"
    },
    {
      "bufferView": 1,
      "byteOffset": 472368,
      "componentType": 5126,
      "count": 39364,
      "max": [
        0.9999875426292419,
        1.0,
        0.999999463558197
      ],
      "min": [
        -1.0,
        -1.0,
        -0.9999999403953552
      ],
      "type": "VEC3"
    },
    {
      "bufferView": 2,
      "componentType": 5126,
      "count": 39364,
      "max": [
        0.929411768913269,
        0.5568627715110779,
        0.24313725531101227,
        1.0
      ],
      "min": [
        0.8980392217636108,
        0.5254902243614197,
        0.21176470816135406,
        1.0
      ],
      "type": "VEC4"
    },
    {
      "bufferView": 0,
      "componentType": 5125,
      "count": 231570,
      "type": "SCALAR"
    },
    {
      "bufferView": 1,
      "byteOffset": 944736,
      "componentType": 5126,
      "count": 3429,
      "max": [
        2.841123580932617,
        36.47090148925781,
        0.41056138277053833
      ],
      "min": [
        1.598248839378357,
        32.16819763183594,
        -0.6007120609283447
      ],
      "type": "VEC3"
    },
    {
      "bufferView": 1,
      "byteOffset": 985884,
      "componentType": 5126,
      "count": 3429,
      "max": [
        0.9999354481697083,
        0.9997838735580444,
        0.9996417164802551
      ],
      "min": [
        -0.9998367428779602,
        -0.9997742772102356,
        -0.9996376037597656
      ],
      "type": "VEC3"
    },
    {
      "bufferView": 2,
      "byteOffset": 629824,
      "componentType": 5126,
      "count": 3429,
      "max": [
        0.40392157435417175,
        0.37254902720451355,
        0.29019609093666077,
        1.0
      ],
      "min": [
        0.38823530077934265,
        0.35686275362968445,
        0.27450981736183167,
        1.0
      ],
      "type": "VEC4"
    },
    {
      "bufferView": 0,
      "byteOffset": 926280,
      "componentType": 5125,
      "count": 20550,
      "type": "SCALAR"
    },
    {
      "bufferView": 1,
      "byteOffset": 1027032,
      "componentType": 5126,
      "count": 65532,
      "max": [
        14.896517753601074,
        178.41343688964844,
        2.058124303817749
      ],
      "min": [
        -2.0581910610198975,
        -0.6175642609596252,
        -10.028425216674805
      ],
      "type": "VEC3"
    },
    {
      "bufferView": 1,
      "byteOffset": 1813416,
      "componentType": 5126,
      "count": 65532,
      "max": [
        1.0,
        0.9999943375587463,
        1.0
      ],
      "min": [
        -1.0,
        -0.9999969601631165,
        -1.0
      ],
      "type": "VEC3"
    },
    {
      "bufferView": 2,
      "byteOffset": 684688,
      "componentType": 5126,
      "count": 65532,
      "max": [
        0.7568627595901489,
        0.4274509847164154,
        0.32549020648002625,
        1.0
      ],
      "min": [
        0.3764705955982208,
        0.21176470816135406,
        0.14901961386203766,
        1.0
      ],
      "type": "VEC4"
    },
    {
      "bufferView": 0,
      "byteOffset": 1008480,
      "componentType": 5125,
      "count": 370722,
      "type": "SCALAR"
    },
    {
      "bufferView": 1,
      "byteOffset": 2599800,
      "componentType": 5126,
      "count": 65532,
      "max": [
        2.626176357269287,
        175.1260223388672,
        2.0257785320281982
      ],
      "min": [
        -2.030582904815674,
        0.48814210295677185,
        -2.0539653301239014
      ],
      "type": "VEC3"
    },
    {
      "bufferView": 1,
      "byteOffset": 3386184,
      "componentType": 5126,
      "count": 65532,
      "max": [
        1.0,
        0.9999954104423523,
        1.0
      ],
      "min": [
        -1.0,
        -0.999872088432312,
        -1.0
      ],
      "type": "VEC3"
    },
    {
      "bufferView": 2,
      "byteOffset": 1733200,
      "componentType": 5126,
      "count": 65532,
      "max": [
        0.7568627595901489,
        0.43921568989753723,
        0.43921568989753723,
        1.0
      ],
      "min": [
        0.2666666805744171,
        0.1725490242242813,
        0.13333334028720856,
        1.0
      ],
      "type": "VEC4"
    },
    {
      "bufferView": 0,
      "byteOffset": 2491368,
      "componentType": 5125,
      "count": 355809,
      "type": "SCALAR"
    },
    {
      "bufferView": 1,
      "byteOffset": 4172568,
      "componentType": 5126,
      "count": 59558,
      "max": [
        2.6260902881622314,
        178.26239013671875,
        2.1716649532318115
      ],
      "min": [
        -2.1637332439422607,
        -0.024140117689967155,
        -2.1703133583068848
      ],
      "type": "VEC3"
    },
    {
      "bufferView": 1,
      "byteOffset": 4887264,
      "componentType": 5126,
      "count": 59558,
      "max": [
        1.0,
        0.9998602867126465,
        1.0
      ],
      "min": [
        -1.0,
        -0.999835729598999,
        -1.0
      ],
      "type": "VEC3"
    },
    {
      "bufferView": 2,
      "byteOffset": 2781712,
      "componentType": 5126,
      "count": 59558,
      "max": [
        0.7568627595901489,
        0.43921568989753723,
        0.43921568989753723,
        1.0
      ],
      "min": [
        0.2823529541492462,
        0.1725490242242813,
        0.13333334028720856,
        1.0
      ],
      "type": "VEC4"
    },
    {
      "bufferView": 0,
      "byteOffset": 3914604,
      "componentType": 5125,
      "count": 289281,
      "type": "SCALAR"
    },
    {
      "bufferView": 1,
      "byteOffset": 5601960,
      "componentType": 5126,
      "count": 65532,
      "max": [
        3.693610429763794,
        181.57330322265625,
        3.6717050075531006
      ],
      "min": [
        -3.6832075119018555,
        22.807861328125,
        -3.6784894466400146
      ],
      "type": "VEC3"
    },
    {
      "bufferView": 1,
      "byteOffset": 6388344,
      "componentType": 5126,
      "count": 65532,
      "max": [
        0.9999998211860657,
        1.0,
        0.9999976754188538
      ],
      "min": [
        -0.9999967217445374,
        -1.0,
        -0.9999995827674866
      ],
      "type": "VEC3"
    },
    {
      "bufferView": 2,
      "byteOffset": 3734640,
      "componentType": 5126,
      "count": 65532,
      "max": [
        0.6274510025978088,
        0.5568627715110779,
        0.545098066329956,
        1.0
      ],
      "min": [
        0.40784314274787903,
        0.4117647111415863,
        0.4117647111415863,
        1.0
      ],
      "type": "VEC4"
    },
    {
      "bufferView": 0,
      "byteOffset": 5071728,
      "componentType": 5125,
      "count": 333000,
      "type": "SCALAR"
    },
    {
      "bufferView": 1,
      "byteOffset": 7174728,
      "componentType": 5126,
      "count": 32944,
      "max": [
        3.671668767929077,
        181.57301330566406,
        3.6705729961395264
      ],
      "min": [
        -3.679091453552246,
        22.807449340820313,
        -3.6692616939544678
      ],
      "type": "VEC3"
    },
    {
      "bufferView": 1,
      "byteOffset": 7570056,
      "componentType": 5126,
      "count": 32944,
      "max": [
        0.9999998211860657,
        1.0,
        0.9999996423721313
      ],
      "min": [
        -0.9999967217445374,
        -1.0,
        -0.9999985098838806
      ],
      "type": "VEC3"
    },
    {
      "bufferView": 2,
      "byteOffset": 4783152,
      "componentType": 5126,
      "count": 32944,
      "max": [
        0.6039215922355652,
        0.5607843399047852,
        0.5686274766921997,
        1.0
      ],
      "min": [
        0.40784314274787903,
        0.4627451002597809,
        0.4627451002597809,
        1.0
      ],
      "type": "VEC4"
    },
    {
      "bufferView": 0,
      "byteOffset": 6403728,
      "componentType": 5125,
      "count": 145596,
      "type": "SCALAR"
    },
    {
      "bufferView": 1,
      "byteOffset": 7965384,
      "componentType": 5126,
      "count": 65532,
      "max": [
        15.151558876037598,
        39.840003967285156,
        2.5377535820007324
      ],
      "min": [
        2.0372250080108643,
        26.75682830810547,
        -3.2111918926239014
      ],
      "type": "VEC3"
    },
    {
      "bufferView": 1,
      "byteOffset": 8751768,
      "componentType": 5126,
      "count": 65532,
      "max": [
        0.9999997615814209,
        0.9999979138374329,
        1.0
      ],
      "min": [
        -0.9999998211860657,
        -0.9999992251396179,
        -1.0
      ],
      "type": "VEC3"
    },
    {
      "bufferView": 2,
      "byteOffset": 5310256,
      "componentType": 5126,
      "count": 65532,
      "max": [
        0.9450980424880981,
        0.6274510025978088,
        0.19607843458652496,
        1.0
      ],
      "min": [
        0.8745098114013672,
        0.5333333611488342,
        0.10196078568696976,
        1.0
      ],
      "type": "VEC4"
    },
    {
      "bufferView": 0,
      "byteOffset": 6986112,
      "componentType": 5125,
      "count": 356688,
      "type": "SCALAR"
    },
    {
      "bufferView": 1,
      "byteOffset": 9538152,
      "componentType": 5126,
      "count": 22098,
      "max": [
        11.7781343460083,
        39.83683395385742,
        2.537686824798584
      ],
      "min": [
        2.0372700691223145,
        30.11817741394043,
        -2.537696361541748
      ],
      "type": "VEC3"
    },
    {
      "bufferView": 1,
      "byteOffset": 9803328,
      "componentType": 5126,
      "count": 22098,
      "max": [
        0.999979555606842,
        0.9999979138374329,
        1.0
      ],
      "min": [
        -0.9999997019767761,
        -0.9999974370002747,
        -1.0
      ],
      "type": "VEC3"
    },
    {
      "bufferView": 2,
      "byteOffset": 6358768,
      "componentType": 5126,
      "count": 22098,
      "max": [
        0.9803921580314636,
        0.6980392336845398,
        0.14509804546833038,
        1.0
      ],
      "min": [
        0.8745098114013672,
        0.5333333611488342,
        0.10196078568696976,
        1.0
      ],
      "type": "VEC4"
    },
    {
      "bufferView": 0,
      "byteOffset": 8412864,
      "componentType": 5125,
      "count": 83598,
      "type": "SCALAR"
    },
    {
      "bufferView": 1,
      "byteOffset": 10068504,
      "componentType": 5126,
      "count": 2656,
      "max": [
        8.03718090057373,
        35.97434997558594,
        3.0222675800323486
      ],
      "min": [
        5.776597499847412,
        33.90200424194336,
        -3.940178871154785
      ],
      "type": "VEC3"
    },
    {
      "bufferView": 1,
      "byteOffset": 10100376,
      "componentType": 5126,
      "count": 2656,
      "max": [
        0.9996935129165649,
        0.9994725584983826,
        0.9999566674232483
      ],
      "min": [
        -0.9995999932289124,
        -0.9998928308486938,
        -0.9999934434890747
      ],
      "type": "VEC3"
    },
    {
      "bufferView": 2,
      "byteOffset": 6712336,
      "componentType": 5126,
      "count": 2656,
      "max": [
        0.7176470756530762,
        0.572549045085907,
        0.32156863808631897,
        1.0
      ],
      "min": [
        0.7058823704719543,
        0.5607843399047852,
        0.3137255012989044,
        1.0
      ],
      "type": "VEC4"
    },
    {
      "bufferView": 0,
      "byteOffset": 8747256,
      "componentType": 5125,
      "count": 15924,
      "type": "SCALAR"
    },
    {
      "bufferView": 1,
      "byteOffset": 10132248,
      "componentType": 5126,
      "count": 65532,
      "max": [
        11.070834159851074,
        176.9215545654297,
        3.170823812484741
      ],
      "min": [
        1.942752480506897,
        30.480358123779297,
        -0.877322256565094
      ],
      "type": "VEC3"
    },
    {
      "bufferView": 1,
      "byteOffset": 10918632,
      "componentType": 5126,
      "count": 65532,
      "max": [
        0.9999071359634399,
        0.9999394416809082,
        0.9999309778213501
      ],
      "min": [
        -0.9999873042106628,
        -0.9999011754989624,
        -0.99990314245224
      ],
      "type": "VEC3"
    },
    {
      "bufferView": 2,
      "byteOffset": 6754832,
      "componentType": 5126,
      "count": 65532,
      "max": [
        0.7137255072593689,
        0.6470588445663452,
        0.48627451062202454,
        1.0
      ],
      "min": [
        0.6901960968971252,
        0.6274510025978088,
        0.4627451002597809,
        1.0
      ],
      "type": "VEC4"
    },
    {
      "bufferView": 0,
      "byteOffset": 8810952,
      "componentType": 5125,
      "count": 368907,
      "type": "SCALAR"
    },
    {
      "bufferView": 1,
      "byteOffset": 11705016,
      "componentType": 5126,
      "count": 65532,
      "max": [
        90.9763412475586,
        180.67291259765625,
        12.553642272949219
      ],
      "min": [
        2.0365102291107178,
        30.6321964263916,
        -9.688021659851074
      ],
      "type": "VEC3"
    },
    {
      "bufferView": 1,
      "byteOffset": 12491400,
      "componentType": 5126,
      "count": 65532,
      "max": [
        0.9999621510505676,
        0.9999979734420776,
        0.9999977350234985
      ],
      "min": [
        -0.999963104724884,
        -0.9998525381088257,
        -0.9999856948852539
      ],
      "type": "VEC3"
    },
    {
      "bufferView": 2,
      "byteOffset": 7803344,
      "componentType": 5126,
      "count": 65532,
      "max": [
        0.7137255072593689,
        0.6470588445663452,
        0.48627451062202454,
        1.0
      ],
      "min": [
        0.6901960968971252,
        0.6235294342041016,
        0.46666666865348816,
        1.0
      ],
      "type": "VEC4"
    },
    {
      "bufferView": 0,
      "byteOffset": 10286580,
      "componentType": 5125,
      "count": 379065,
      "type": "SCALAR"
    },
    {
      "bufferView": 1,
      "byteOffset": 13277784,
      "componentType": 5126,
      "count": 21987,
      "max": [
        91.07029724121094,
        180.60214233398438,
        12.201385498046875
      ],
      "min": [
        1.9677692651748657,
        30.55025291442871,
        -9.258458137512207
      ],
      "type": "VEC3"
    },
    {
      "bufferView": 1,
      "byteOffset": 13541628,
      "componentType": 5126,
      "count": 21987,
      "max": [
        0.9998988509178162,
        0.9999979734420776,
        0.9998914003372192
      ],
      "min": [
        -0.9998725056648254,
        -0.9997350573539734,
        -0.9998355507850647
      ],
      "type": "VEC3"
    },
    {
      "bufferView": 2,
      "byteOffset": 8851856,
      "componentType": 5126,
      "count": 21987,
      "max": [
        0.7137255072593689,
        0.6470588445663452,
        0.48627451062202454,
        1.0
      ],
      "min": [
        0.6901960968971252,
        0.6274510025978088,
        0.4627451002597809,
        1.0
      ],
      "type": "VEC4"
    },
    {
      "bufferView": 0,
      "byteOffset": 11802840,
      "componentType": 5125,
      "count": 50148,
      "type": "SCALAR"
    }
  ],
  "asset": {
    "extras": {
      "author": "Vera (https://sketchfab.com/vgrosskop)",
      "license": "CC-BY-4.0 (http://creativecommons.org/licenses/by/4.0/)",
      "source": "https://sketchfab.com/3d-models/fishing-rod-67731fd2eb974e709337e68f1bb3b8ac",
      "title": "Fishing Rod"
    },
    "generator": "Sketchfab-12.66.0",
    "version": "2.0"
  },
  "bufferViews": [
    {
      "buffer": 0,
      "byteLength": 12003432,
      "name": "floatBufferViews",
      "target": 34963
    },
    {
      "buffer": 0,
      "byteLength": 13805472,
      "byteOffset": 12003432,
      "byteStride": 12,
      "name": "floatBufferViews",
      "target": 34962
    },
    {
      "buffer": 0,
      "byteLength": 9203648,
      "byteOffset": 25808904,
      "byteStride": 16,
      "name": "floatBufferViews",
      "target": 34962
    }
  ],
  "buffers": [
    {
      "byteLength": 35012552,
      "uri": "scene.bin"
    }
  ],
  "materials": [
    {
      "doubleSided": true,
      "name": "Bronze_RodRings",
      "pbrMetallicRoughness": {
        "baseColorFactor": [
          0.5,
          0.5,
          0.5,
          1.0
        ],
        "roughnessFactor": 0.3902726349646438
      }
    },
    {
      "doubleSided": true,
      "name": "Bolts",
      "pbrMetallicRoughness": {
        "baseColorFactor": [
          0.5,
          0.5,
          0.5,
          1.0
        ],
        "roughnessFactor": 0.3416312496579902
      }
    },
    {
      "doubleSided": true,
      "name": "Wooden_rod",
      "pbrMetallicRoughness": {
        "baseColorFactor": [
          0.14069900710772243,
          0.14069900710772243,
          0.14069900710772243,
          1.0
        ],
        "metallicFactor": 0.0,
        "roughnessFactor": 0.5301166177212726
      }
    },
    {
      "doubleSided": true,
      "name": "Metal_rings",
      "pbrMetallicRoughness": {
        "baseColorFactor": [
          0.5,
          0.5,
          0.5,
          1.0
        ],
        "roughnessFactor": 0.4571545397612924
      }
    },
    {
      "doubleSided": true,
      "name": "Bronze_Spool",
      "pbrMetallicRoughness": {
        "baseColorFactor": [
          0.2835830764460172,
          0.2835830764460172,
          0.2835830764460172,
          1.0
        ],
        "roughnessFactor": 0.5422769640479361
      }
    },
    {
      "doubleSided": true,
      "name": "Axis",
      "pbrMetallicRoughness": {
        "baseColorFactor": [
          0.5,
          0.5,
          0.5,
          1.0
        ],
        "roughnessFactor": 0.48755540557795085
      }
    },
    {
      "doubleSided": true,
      "name": "Rope",
      "pbrMetallicRoughness": {
        "baseColorFactor": [
          0.5,
          0.5,
          0.5,
          1.0
        ],
        "metallicFactor": 0.0,
        "roughnessFactor": 0.0
      }
    }
  ],
  "meshes": [
    {
      "name": "Bronze_RodRings_Bronze_RodRings_0",
      "primitives": [
        {
          "attributes": {
            "COLOR_0": 2,
            "NORMAL": 1,
            "POSITION": 0
          },
          "indices": 3,
          "material": 0,
          "mode": 4
        }
      ]
    },
    {
      "name": "Bolts_Bolts_0",
      "primitives": [
        {
          "attributes": {
            "COLOR_0": 6,
            "NORMAL": 5,
            "POSITION": 4
          },
          "indices": 7,
          "material": 1,
          "mode": 4
        }
      ]
    },
    {
      "name": "Wooden_rod_Wooden_rod_0",
      "primitives": [
        {
          "attributes": {
            "COLOR_0": 10,
            "NORMAL": 9,
            "POSITION": 8
          },
          "indices": 11,
          "material": 2,
          "mode": 4
        }
      ]
    },
    {
      "name": "Wooden_rod_Wooden_rod_0",
      "primitives": [
        {
          "attributes": {
            "COLOR_0": 14,
            "NORMAL": 13,
            "POSITION": 12
          },
          "indices": 15,
          "material": 2,
          "mode": 4
        }
      ]
    },
    {
      "name": "Wooden_rod_Wooden_rod_0",
      "primitives": [
        {
          "attributes": {
            "COLOR_0": 18,
            "NORMAL": 17,
            "POSITION": 16
          },
          "indices": 19,
          "material": 2,
          "mode": 4
        }
      ]
    },
    {
      "name": "Metal_rings_Metal_rings_0",
      "primitives": [
        {
          "attributes": {
            "COLOR_0": 22,
            "NORMAL": 21,
            "POSITION": 20
          },
          "indices": 23,
          "material": 3,
          "mode": 4
        }
      ]
    },
    {
      "name": "Metal_rings_Metal_rings_0",
      "primitives": [
        {
          "attributes": {
            "COLOR_0": 26,
            "NORMAL": 25,
            "POSITION": 24
          },
          "indices": 27,
          "material": 3,
          "mode": 4
        }
      ]
    },
    {
      "name": "Bronze_Spool_Bronze_Spool_0",
      "primitives": [
        {
          "attributes": {
            "COLOR_0": 30,
            "NORMAL": 29,
            "POSITION": 28
          },
          "indices": 31,
          "material": 4,
          "mode": 4
        }
      ]
    },
    {
      "name": "Bronze_Spool_Bronze_Spool_0",
      "primitives": [
        {
          "attributes": {
            "COLOR_0": 34,
            "NORMAL": 33,
            "POSITION": 32
          },
          "indices": 35,
          "material": 4,
          "mode": 4
        }
      ]
    },
    {
      "name": "Axis_Axis_0",
      "primitives": [
        {
          "attributes": {
            "COLOR_0": 38,
            "NORMAL": 37,
            "POSITION": 36
          },
          "indices": 39,
          "material": 5,
          "mode": 4
        }
      ]
    },
    {
      "name": "Rope_Rope_0",
      "primitives": [
        {
          "attributes": {
            "COLOR_0": 42,
            "NORMAL": 41,
            "POSITION": 40
          },
          "indices": 43,
          "material": 6,
          "mode": 4
        }
      ]
    },
    {
      "name": "Rope_Rope_0",
      "primitives": [
        {
          "attributes": {
            "COLOR_0": 46,
            "NORMAL": 45,
            "POSITION": 44
          },
          "indices": 47,
          "material": 6,
          "mode": 4
        }
      ]
    },
    {
      "name": "Rope_Rope_0",
      "primitives": [
        {
          "attributes": {
            "COLOR_0": 50,
            "NORMAL": 49,
            "POSITION": 48
          },
          "indices": 51,
          "material": 6,
          "mode": 4
        }
      ]
    }
  ],
  "nodes": [
    {
      "children": [
        1
      ],
      "matrix": [
        -0.7544237375259399,
        -0.6563125848770142,
        0.009927099570631835,
        0.0,
        0.014665539376437664,
        -0.0017339515034111574,
        0.999890923500061,
        0.0,
        -0.6562238335609436,
        0.7544870972633362,
        0.010933312587440182,
        0.0,
        134.61717224121094,
        50.35213851928711,
        1.125967860221874,
        1.0
      ],
      "name": "Sketchfab_model"
    },
    {
      "children": [
        2
      ],
      "matrix": [
        1.0,
        0.0,
        0.0,
        0.0,
        0.0,
        0.0,
        1.0,
        0.0,
        0.0,
        -1.0,
        0.0,
        0.0,
        0.0,
        0.0,
        0.0,
        1.0
      ],
      "name": "9f58090874304a3d8e8bfbfd42dad28f.fbx"
    },
    {
      "children": [
        3,
        5,
        7,
        11,
        14,
        17,
        19
      ],
      "name": "RootNode"
    },
    {
      "children": [
        4
      ],
      "name": "Bronze_RodRings"
    },
    {
      "mesh": 0,
      "name": "Bronze_RodRings_Bronze_RodRings_0"
    },
    {
      "children": [
        6
      ],
      "name": "Bolts"
    },
    {
      "mesh": 1,
      "name": "Bolts_Bolts_0"
    },
    {
      "children": [
        8,
        9,
        10
      ],
      "name": "Wooden_rod"
    },
    {
      "mesh": 2,
      "name": "Wooden_rod_Wooden_rod_0"
    },
    {
      "mesh": 3,
      "name": "Wooden_rod_Wooden_rod_0"
    },
    {
      "mesh": 4,
      "name": "Wooden_rod_Wooden_rod_0"
    },
    {
      "children": [
        12,
        13
      ],
      "name": "Metal_rings"
    },
    {
      "mesh": 5,
      "name": "Metal_rings_Metal_rings_0"
    },
    {
      "mesh": 6,
      "name": "Metal_rings_Metal_rings_0"
    },
    {
      "children": [
        15,
        16
      ],
      "name": "Bronze_Spool"
    },
    {
      "mesh": 7,
      "name": "Bronze_Spool_Bronze_Spool_0"
    },
    {
      "mesh": 8,
      "name": "Bronze_Spool_Bronze_Spool_0"
    },
    {
      "children": [
        18
      ],
      "name": "Axis"
    },
    {
      "mesh": 9,
      "name": "Axis_Axis_0"
    },
    {
      "children": [
        20,
        21,
        22
      ],
      "name": "Rope"
    },
    {
      "mesh": 10,
      "name": "Rope_Rope_0"
    },
    {
      "mesh": 11,
      "name": "Rope_Rope_0"
    },
    {
      "mesh": 12,
      "name": "Rope_Rope_0"
    }
  ],
  "scene": 0,
  "scenes": [
    {
      "name": "Sketchfab_Scene",
      "nodes": [
        0
      ]
    }
  ]
}
